
<svg version="1.1" xmlns="http://www.w3.org/2000/svg" xmlns:xlink="http://www.w3.org/1999/xlink" x="0px" y="0px" width="74.3px"
	 height="74.3px" viewBox="0 0 74.3 74.3" style="overflow:visible;enable-background:new 0 0 74.3 74.3;" xml:space="preserve">
<style type="text/css">
	.st0{fill:#006600;}
	.st1{fill:none;stroke:#FFFFFF;stroke-miterlimit:10;}
	.st2{fill:#FFFFFF;}
</style>
<defs>
</defs>
<path class="st0" d="M62.9,74.3H11.4C5.1,74.3,0,69.2,0,62.9V11.4C0,5.1,5.1,0,11.4,0h51.6c6.3,0,11.4,5.1,11.4,11.4v51.6
	C74.3,69.2,69.2,74.3,62.9,74.3z"/>
<g>
	<path class="st1" d="M50,17.4V13c-0.6-4.5-4.4-7.9-9-7.9c-4.6,0-8.4,3.4-9,7.9v4.4H20.5v6.5h-9c-0.6,0-1.1,0.5-1.1,1.1v2.7
		c0,0.4,0.1,0.8,0.3,1.1l10.9,19.5V51c0,0.4,0,0.8,0.1,1.2c2.9,0.6,6.9,1.1,12.2,1.1v-1.7l8.3,3.7l-8.3,3.4v-1.5
		c0,0-6.5-0.5-11.6-2.4c1.1,3.1,3.4,5.5,6.4,6.7c-1.3,0.8-2.1,2.4-1.8,4.1c0.3,1.8,1.8,3.3,3.6,3.5c2.5,0.3,4.6-1.7,4.6-4.1
		c0-1-0.4-1.9-0.9-2.6h13.4c-0.8,1-1.2,2.4-0.8,3.9c0.4,1.4,1.6,2.5,3,2.8c2.7,0.6,5.1-1.4,5.1-4c0-1.4-0.7-2.7-1.9-3.4
		c4.2-1.7,7.1-5.8,7.1-10.6V22.8v-5.4H50z M21.7,39.4c0,0.6-0.7,0.8-1,0.3l-5.3-9.2c-0.4-0.7,0.1-1.6,0.9-1.6h3.9
		c0.8,0,1.5,0.7,1.5,1.5V39.4z M50.6,47.3H36.4c-0.4,0-0.8-0.3-0.8-0.8v-0.6c0-0.4,0.3-0.8,0.8-0.8h14.2V47.3z M50.6,42.8H33.5
		c-0.4,0-0.8-0.3-0.8-0.8v-0.4c0-0.4,0.3-0.8,0.8-0.8h17.1V42.8z M50.6,38.4H39.8c-0.4,0-0.8-0.3-0.8-0.8v-1.2l0,0l11.5,0V38.4z
		 M50.6,34H38.2c-0.4,0-0.8-0.3-0.8-0.8v-0.7c0-0.4,0.3-0.8,0.8-0.8h12.4V34z M50.6,29H31.7c-0.4,0-0.8-0.3-0.8-0.8v-0.6
		c0-0.4,0.3-0.8,0.8-0.8h18.9V29z"/>
	<path class="st1" d="M31.5,27.6C31.5,27.6,31.5,27.6,31.5,27.6c0,0.1-0.1,0.1-0.1,0.1c0,0,0,0,0,0c0,0,0,0,0,0c0,0,0,0,0,0
		c0,0,0,0.1,0,0.1c0,0,0,0,0,0c0,0,0,0.1,0,0.1c0,0,0,0.1,0,0.1c0,0,0,0.1,0,0.1c0,0,0,0,0,0c0,0,0,0,0,0c0,0,0,0.1,0.1,0.1
		c0,0,0,0,0,0c0,0,0,0,0,0c0,0,0,0,0,0c0,0,0.1,0.1,0.1,0.1c0,0,0,0,0,0c0,0,0,0,0,0c0.1,0,0.1,0.1,0.2,0.1c0.1,0,0.1,0,0.2,0
		c0.1,0,0.1,0,0.2-0.1c0.1,0,0.1-0.1,0.2-0.1c0,0,0-0.1,0.1-0.1c0-0.1,0.1-0.2,0-0.3c0,0,0-0.1,0-0.1c0-0.1-0.1-0.2-0.1-0.2
		c0,0,0,0,0,0c0,0,0.1,0.1,0.1,0.1c0,0,0,0,0,0c0,0,0,0.1,0.1,0.1c0,0,0,0,0,0c0,0,0,0.1,0,0.1c0,0,0,0,0,0c0,0,0,0.1,0,0.1
		c0,0,0,0,0,0c0,0,0,0.1,0,0.1c0,0,0,0,0,0c0,0,0,0.1-0.1,0.1c0,0,0,0,0,0c0-0.1,0.1-0.1,0.1-0.2c0-0.1,0-0.1,0-0.2
		c0-0.1,0-0.1-0.1-0.2c0-0.1-0.1-0.1-0.1-0.2c0,0-0.1,0-0.1-0.1c-0.1,0-0.2-0.1-0.3,0c0,0-0.1,0-0.1,0
		C31.7,27.5,31.6,27.5,31.5,27.6L31.5,27.6z"/>
	<path class="st2" d="M50.2,27.8c0.2-0.2,0.2-0.5,0-0.7c-0.5-0.4-1.1-0.4-1.7-0.3c-0.9,0.1-1.7,0.1-2.6,0.2
		c-1.8,0.1-3.6,0.2-5.4,0.1c-0.2,0-0.3,0.1-0.4,0.3c-0.1,0-0.1,0-0.2,0c-0.1-0.1-0.2-0.2-0.3-0.2c-0.4,0-0.8,0-1.1,0.1
		c-0.1-0.1-0.2-0.2-0.3-0.2c-0.5,0-0.9,0-1.4,0c-0.5-0.1-1.1-0.2-1.6-0.1c-0.5,0-0.7,0.3-1.1,0.5c0,0,0,0-0.1,0c0,0-0.1,0-0.1,0
		c0,0,0,0,0.1,0c0,0,0,0-0.1,0c-0.1,0-0.2,0-0.2,0c-0.3,0-0.5,0-0.8,0c0,0,0,0,0,0c0,0,0,0,0,0c0-0.1,0-0.1-0.1-0.2
		c0-0.1-0.1-0.1-0.1-0.1c-0.1,0-0.1-0.1-0.2-0.1c-0.1,0-0.3,0-0.4,0.1c-0.1,0.1-0.2,0.2-0.2,0.3c0,0.1,0,0.2,0,0.3
		c0,0.1,0.1,0.1,0.1,0.2c0,0,0,0,0,0c0,0,0.1,0.1,0.1,0.1c0,0,0,0,0,0c0,0.1,0,0.2,0.1,0.3c-0.1,0.3,0.1,0.7,0.5,0.7
		c0.6-0.1,1.3,0,1.9,0c0.6,0,1.2,0.1,1.8-0.2c0.7,0.3,1.7,0.1,2.5,0c0.8-0.1,1.6,0,2.4,0c0.3,0.2,0.7,0.2,1.1,0.2
		c0.8,0.1,1.6-0.2,2.4-0.2c0.9-0.1,1.9-0.2,2.8-0.1c0.4,0,0.9,0.1,1.3,0.1c0.4,0,0.8,0.1,1.1-0.1C50.4,28.5,50.5,28,50.2,27.8z"/>
	<path class="st2" d="M50.2,32.9c0.1-0.2,0.1-0.4,0-0.6c-0.1-0.3-0.5-0.4-0.8-0.4c-0.9,0-1.9,0.1-2.8,0.2c-0.3,0-0.5,0.1-0.8,0.1
		c-0.3,0-0.6-0.1-0.9-0.1c-0.1,0-0.2,0-0.3,0c-0.2-0.4-1-0.2-1.4-0.1c-0.2,0.1-0.5,0.1-0.7,0.1c-0.7-0.1-1.5-0.2-2.2,0c0,0,0,0,0,0
		c-0.1,0-0.1-0.1-0.2-0.1c-0.4,0-1-0.1-1.5,0c-0.2-0.4-0.9-0.2-0.9,0.3c0,0.1,0,0.2,0,0.2c-0.1,0.3-0.2,0.6,0,0.9
		c0.1,0.2,0.4,0.3,0.6,0.2c0.1,0,0.1-0.1,0.1-0.1c0,0,0,0,0,0c0.5,0.1,0.9,0.2,1.3,0c0.1,0,0.3,0,0.4-0.1c0,0.2,0.2,0.3,0.4,0.3
		c0.8,0.1,1.6,0,2.3,0c0.8,0,1.6,0,2.4-0.1c0.7-0.1,1.4,0,2.1,0c0.4,0,0.7-0.1,1.1-0.1c0.3,0,0.8-0.1,1.1,0
		C50.3,34,50.7,33.2,50.2,32.9z"/>
	<path class="st2" d="M50.2,37.2c0-0.2-0.1-0.4-0.3-0.5c-0.2-0.1-0.5-0.1-0.7-0.1c-0.1,0-0.2,0-0.2,0.1c0,0-0.1,0-0.1,0c0,0,0,0,0,0
		c-0.1,0-0.3,0-0.4,0c0,0-0.1,0-0.1,0c-0.1,0-0.1,0-0.2,0c-0.2,0-0.3,0-0.4,0c-0.1,0-0.3,0-0.4,0c-0.1,0-0.1,0-0.2,0c0,0,0,0,0,0
		c-0.2-0.1-0.5-0.1-0.6,0.1c0,0-0.1,0.1-0.1,0.2c-0.1,0-0.1,0-0.2,0c-0.1,0-0.3-0.1-0.3-0.1c-0.3-0.2-0.6-0.1-0.7,0.1
		c-0.1,0-0.2,0-0.4,0c-0.5,0-1,0-1.5,0c-0.1,0-0.2,0-0.4,0c-0.2,0-0.4,0-0.6,0c-0.2,0-0.4,0-0.5,0c-0.5-0.1-1-0.3-1.5-0.1
		c0,0,0,0,0,0c-0.1-0.1-0.2-0.1-0.4-0.1c-0.1,0-0.2,0-0.3,0c-0.2,0.1-0.3,0.2-0.4,0.4c0,0,0,0,0,0.1c0,0.1-0.1,0.2,0,0.3
		c0,0.2,0.1,0.3,0.2,0.4c0,0,0.1,0.1,0.1,0.1c0.1,0.1,0.1,0.1,0.1,0.2c0.1,0.2,0.3,0.3,0.5,0.4c0.1,0,0.3,0,0.4,0
		c0.1,0,0.2,0,0.3-0.1c0,0,0.1-0.1,0.1-0.1c0.1,0,0.3-0.1,0.4-0.1c0.2,0.1,0.4,0.1,0.6,0.1c0.3,0,0.5,0,0.8,0c0.2,0,0.3,0,0.5,0
		c0.1,0.1,0.2,0.2,0.4,0.2c0.8,0,1.5,0,2.3,0c0.3,0,0.6,0,0.9-0.1c0.3-0.1,0.6,0,0.8-0.2c0.1,0.1,0.2,0.1,0.3,0.1c0,0,0.1,0,0.2-0.1
		c0,0,0,0,0,0c0,0,0.1,0,0.1,0c0.1,0,0.3,0,0.4,0c0.1,0,0.1,0,0,0c0,0,0.1,0,0.1,0c0.1,0,0.1,0,0.2,0c0,0,0.1,0,0.1,0c0,0,0,0,0,0
		c0.1,0,0.1,0.1,0.2,0.1c0.4,0.1,0.8-0.1,0.8-0.5C50.2,37.5,50.2,37.3,50.2,37.2z"/>
	<path class="st2" d="M50.6,41.6c-0.2-0.6-1.2-0.5-1.7-0.6c-0.9,0-1.8,0.1-2.7,0.1c-0.9,0-1.8,0-2.7,0c0,0-0.1,0-0.1,0
		c-0.7,0-1.4-0.1-2.1-0.1c-0.6,0-1.1,0.2-1.7,0.2c-0.9,0-1.9,0-2.9,0c0,0-0.1,0-0.1,0c-0.6,0-1.1,0-1.7,0c-0.2,0-0.5,0-0.7,0
		c-0.2,0-0.3,0-0.5,0.1c-0.1,0-0.2,0-0.3,0.1c0,0-0.1,0-0.1,0.1c-0.5,0.3-0.1,0.9,0.3,0.9c0.4,0,0.8-0.1,1.2-0.1
		c0.1,0.1,0.2,0.2,0.4,0.2c0.4-0.1,0.8-0.1,1.1-0.1c0.3,0,0.6,0,0.9,0c0.1,0.2,0.2,0.3,0.4,0.3c0.2,0.1,0.5,0,0.7,0
		c0.1,0,0.3,0,0.4-0.1c0.6,0,1.3,0,1.9,0c1,0,2,0,2.9,0c1.9,0,3.9-0.5,5.8-0.1C50,42.5,50.8,42.3,50.6,41.6z"/>
	<path class="st2" d="M49.2,45.4c-0.4,0-0.7,0.1-1.1,0.2c-0.1-0.1-0.2-0.2-0.3-0.2c-0.9-0.1-1.8,0.1-2.8,0.1c-1,0-1.9,0-2.9,0
		c-0.8-0.1-1.6-0.1-2.4,0c-0.3,0-0.7,0.1-1,0.1c-0.2,0-0.5,0-0.7,0c-0.1,0-0.5,0-0.3,0.1c-0.1,0-0.2,0-0.2,0c0-0.3-0.2-0.5-0.5-0.5
		c-0.6,0.1-0.9,0.7-0.8,1.3c0.2,0.9,1.2,0.6,1.9,0.6c0.4,0,0.8,0.1,1.3,0.1c0.5,0,1,0,1.5,0c0.9,0,1.8,0,2.8-0.1
		c0.9-0.1,1.8,0,2.6-0.1c0.5-0.1,0.9-0.1,1.4-0.1c0.5,0,1,0.1,1.5,0c0.1,0,0.1,0,0.1-0.1c0,0,0,0,0.1,0c0.1,0,0.2,0.1,0.4,0.1
		c0.3,0,0.6-0.2,0.7-0.5C50.5,45.8,49.9,45.4,49.2,45.4z"/>
	<line class="st1" x1="50" y1="17.4" x2="32.1" y2="17.4"/>
	<line class="st1" x1="50" y1="17.4" x2="50" y2="20.4"/>
	<line class="st1" x1="54.5" y1="20.4" x2="49.6" y2="20.4"/>
	<line class="st1" x1="32.1" y1="20.4" x2="32.1" y2="17.4"/>
	<line class="st1" x1="32.5" y1="20.4" x2="27.6" y2="20.4"/>
</g>
</svg>
