
<svg version="1.1" xmlns="http://www.w3.org/2000/svg" xmlns:xlink="http://www.w3.org/1999/xlink" x="0px" y="0px" width="255px"
	 height="82.8px" viewBox="0 0 255 82.8" style="overflow:visible;enable-background:new 0 0 255 82.8;" xml:space="preserve">
<style type="text/css">
	.st0{fill:#FFFFFF;}
</style>
<defs>
</defs>
<g>
	<path class="st0" d="M11.2,80.5C6.6,79,2.8,77.1,0,74.7V5.2c0-1.7,0.4-3.1,1.1-3.9C1.8,0.4,3,0,4.7,0h7.5c1.7,0,2.9,0.4,3.6,1.3
		c0.7,0.8,1,2.2,1,4v21.2c1.6-1.4,3.7-2.5,6.2-3.3c2.6-0.8,5.2-1.1,8-1.1c8,0,14.1,2.4,18.4,7.3s6.4,11.8,6.4,20.8
		c0,10.3-2.5,18.3-7.6,24.1c-5.1,5.7-12.6,8.6-22.4,8.6C20.7,82.8,15.9,82,11.2,80.5z M35.3,64.5c2.3-3.1,3.4-7.8,3.4-14.1
		c0-5.1-0.9-8.8-2.6-11.2c-1.8-2.4-4.6-3.6-8.7-3.6c-2.9,0-5.4,0.9-7.5,2.6c-2.1,1.7-3.2,4.2-3.2,7.4v21.6c1,0.6,2.2,1.1,3.6,1.5
		s2.9,0.5,4.5,0.5C29.6,69.2,33,67.6,35.3,64.5z"/>
	<path class="st0" d="M65.3,79.8c-0.7-0.8-1.1-2.1-1.1-3.9V5.2c0-1.7,0.4-3.1,1.1-3.9C66,0.4,67.2,0,68.9,0h7.8
		c1.7,0,2.9,0.4,3.6,1.3c0.7,0.8,1,2.2,1,4v70.6c0,1.7-0.3,3-1,3.9c-0.7,0.8-1.9,1.3-3.6,1.3h-7.8C67.2,81,66,80.6,65.3,79.8z"/>
	<path class="st0" d="M104.3,79.5c-4.5-2.2-8-5.5-10.6-9.9s-3.9-9.9-3.9-16.4c0-10.2,2.4-17.9,7.3-23.2c4.9-5.3,11.8-8,20.9-8
		c8.9,0,15.7,2.6,20.3,7.7c4.6,5.2,6.9,12.5,6.9,22c0,3.3-1.3,5-3.9,5H106c0,4.3,1.4,7.6,4.2,9.9c2.8,2.3,6.6,3.5,11.6,3.5
		c2.9,0,5.4-0.3,7.6-1c2.1-0.7,4.2-1.6,6.2-2.9c0.7-0.4,1.2-0.6,1.5-0.6c0.5,0,0.9,0.4,1.3,1.3l3,6.4c0.3,0.6,0.4,1,0.4,1.4
		c0,0.6-0.4,1.3-1.1,1.9c-2.8,2.1-5.9,3.6-9.3,4.5c-3.5,1-7.4,1.4-11.9,1.4C113.8,82.8,108.7,81.7,104.3,79.5z M129.8,46.6
		c0-4-1-7.1-2.9-9.3c-1.9-2.2-4.9-3.3-8.8-3.3s-6.9,1.1-9,3.4c-2.1,2.3-3.1,5.3-3.1,9.2H129.8z"/>
	<path class="st0" d="M163.7,76.8c-3.2-4-4.9-9.4-4.9-16.4V37.6h-5.1c-1.7,0-2.8-0.4-3.3-1.1c-0.6-0.7-0.8-2-0.8-3.8v-3.9
		c0-1.8,0.3-3.1,0.8-3.9c0.6-0.8,1.7-1.1,3.3-1.1h5.1v-4.8c0-1.7,0.3-3.5,1-5.2c0.7-1.7,1.6-3.8,2.8-6.4c0.6-1.1,1.1-1.8,1.6-2.2
		c0.5-0.4,1.3-0.5,2.6-0.5h4.8c1.6,0,2.7,0.4,3.4,1.2c0.7,0.8,1,2.1,1,3.8v14.1h10.3c1.7,0,2.8,0.4,3.3,1.1c0.6,0.8,0.8,2,0.8,3.9
		v3.9c0,1.8-0.3,3.1-0.8,3.8c-0.6,0.7-1.7,1.1-3.3,1.1h-10.3v22.3c0,3.1,0.5,5.3,1.5,6.7c1,1.4,2.6,2,4.9,2c1.4,0,2.5-0.2,3.5-0.6
		c0.9-0.4,2-1,3.2-1.9c0.6-0.4,1-0.6,1.2-0.6c0.6,0,1.1,0.4,1.6,1.3l3.8,7.5c0.3,0.6,0.5,1.2,0.5,1.5c0,0.6-0.4,1.2-1.2,1.8
		c-4.4,3.4-9.9,5.1-16.8,5.1C171.7,82.8,166.9,80.8,163.7,76.8z"/>
	<path class="st0" d="M204.5,74.6c-5.1-5.4-7.6-12.8-7.6-22.2c0-9.4,2.5-16.8,7.6-22.2c5.1-5.4,12.2-8.2,21.4-8.2
		c9.3,0,16.4,2.7,21.5,8.2S255,43,255,52.4c0,9.4-2.5,16.8-7.6,22.2c-5.1,5.4-12.2,8.2-21.5,8.2C216.7,82.8,209.5,80.1,204.5,74.6z
		 M234.9,64.6c2.1-2.7,3.1-6.7,3.1-12.2c0-5.3-1-9.3-3.1-12c-2.1-2.7-5.1-4.1-9-4.1c-3.9,0-6.8,1.4-8.9,4.1c-2.1,2.7-3.1,6.7-3.1,12
		c0,5.3,1,9.4,3.1,12.1c2.1,2.7,5,4.1,8.9,4.1C229.8,68.6,232.8,67.3,234.9,64.6z"/>
</g>
</svg>
