<svg version="1.1" xmlns="http://www.w3.org/2000/svg" xmlns:xlink="http://www.w3.org/1999/xlink" x="0px" y="0px" width="318.1px"
	 height="107.4px" viewBox="0 0 318.1 107.4" style="overflow:visible;enable-background:new 0 0 318.1 107.4;"
	 xml:space="preserve">
<style type="text/css">
	.st0{fill:#FFFFFF;}
	.st1{fill:#FFFFFF;stroke:#CC3333;stroke-width:3;stroke-miterlimit:10;}
	.st2{fill:#CC3333;stroke:#CC3333;stroke-width:3;stroke-miterlimit:10;}
</style>
<defs>
</defs>
<g>
	<path class="st0" d="M78,104.8c-2.5,0-4.5-0.9-4.5-1.9c0.2-4.7,0.4-10.9,0.4-16.4V2.6c0-1.1,2-1.9,4.5-1.9h1.3
		c2.5,0,4.5,0.9,4.5,1.9v42.7h0.2c3.7-7.9,10.3-13.1,19.5-13.1c14.2,0,24.2,14.7,24.1,36.2c0,25.4-12.9,38-25.6,38
		c-8.3,0-14.9-4-19.1-13.3h-0.4l-0.4,9.9C82.4,104,80.4,104.8,78,104.8L78,104.8z M84.2,76.4c0,1.6,0.2,3.2,0.5,4.7
		c2,8.9,8,15.1,15.6,15.1c10.9,0,17.4-11,17.4-27.3c0-14.2-5.9-26.4-17-26.4c-7.1,0-13.7,6-15.8,15.8c-0.2,1.5-0.6,3.2-0.6,5.3V76.4
		z"/>
	<path class="st0" d="M146.3,0.7L146.3,0.7c2.9,0,5.2,1,5.2,2.2v99.7c0,1.2-2.3,2.2-5.2,2.2h0c-2.9,0-5.2-1-5.2-2.2V2.9
		C141.1,1.7,143.4,0.7,146.3,0.7z"/>
	<path class="st0" d="M181.6,71.7c-3.8,0-6.9,1.3-6.7,3c1.2,15.3,9.7,21.7,19.5,21.7c2.9,0,5.3-0.2,7.4-0.7c4.2-0.8,9,0.4,9.4,2.4
		l0.5,2.7c0.1,0.8-0.4,1.6-1.7,2.1c-3.8,1.8-9.4,3.4-17.1,3.4c-17.6,0-28.1-14.4-28.1-35.8c0-21.4,10.1-38.3,26.8-38.3
		c18.6,0,23.6,20.4,23.6,33.4c0,1.2,0,2.3-0.1,3.2c-0.1,1.6-3.1,2.8-6.7,2.8H181.6z M198.3,62.4c3.8,0,6.9-1.3,6.7-3
		c-0.6-8-4-18-14.3-18c-9.3,0-14,9.5-15.5,17.9c-0.3,1.7,2.8,3.1,6.7,3.1H198.3z"/>
	<path class="st0" d="M240.6,17.2V32c0,1,1.9,1.8,4.3,1.8h6.2c2.4,0,4.3,0.8,4.3,1.8v6.1c0,1-1.9,1.8-4.3,1.8h-6.2
		c-2.4,0-4.3,0.8-4.3,1.8v36.4c0,8.8,2,13.8,7.8,13.8c0.4,0,0.8,0,1.1,0c2.6-0.1,5,0.7,5,1.8l0.3,6.2c0,0.5-0.5,1.1-1.5,1.4
		c-2,0.7-4.6,1.1-7.7,1.1c-4.8,0-8.7-1.9-11.2-5.4c-3-3.8-4-10.1-4-18.5V45.5c0-1-1.9-1.8-4.3-1.8h-0.2c-2.4,0-4.3-0.8-4.3-1.8v-6.1
		c0-1,1.9-1.8,4.3-1.8h0.2c2.4,0,4.3-0.8,4.3-1.8V17.7c0-0.6,0.6-1.1,1.7-1.5l1.5-0.5C236.4,14.8,240.6,15.7,240.6,17.2z"/>
	<path class="st0" d="M318.1,68.7c0,26.3-14.6,37.7-28.4,37.7c-15.5,0-27.4-14.1-27.4-36.5c0-23.8,12.5-37.7,28.3-37.7
		C307,32.2,318.1,47,318.1,68.7z M272.8,69.5c0,15.5,7.2,27.3,17.3,27.3c9.9,0,17.3-11.6,17.3-27.6c0-12-4.8-27.3-17.1-27.3
		C278.1,41.9,272.8,56,272.8,69.5z"/>
</g>
<g>
	<ellipse class="st1" cx="32.8" cy="53.7" rx="31.3" ry="52.2"/>
	<line class="st2" x1="39.7" y1="3.3" x2="2.7" y2="68.4"/>
	<line class="st2" x1="48.3" y1="8.9" x2="6.5" y2="82.4"/>
	<line class="st2" x1="53.9" y1="15" x2="12.4" y2="93.3"/>
	<line class="st2" x1="57.9" y1="23.1" x2="18.2" y2="100.4"/>
	<line class="st2" x1="61.4" y1="32.8" x2="25.3" y2="104.9"/>
	<line class="st2" x1="63.7" y1="45.7" x2="32.8" y2="106.4"/>
</g>
</svg>
