
<svg version="1.1" xmlns="http://www.w3.org/2000/svg" xmlns:xlink="http://www.w3.org/1999/xlink" x="0px" y="0px" width="334px"
	 height="172.2px" viewBox="0 0 334 172.2" style="overflow:visible;enable-background:new 0 0 334 172.2;" xml:space="preserve">
<style type="text/css">
	.st0{fill:#FFFFFF;}
</style>
<defs>
</defs>
<g>
	<g>
		<path class="st0" d="M213.3,91.4c0-16.5-5.3-28.3-14.4-36.6c-8.9-8.3-22.4-12.7-41.3-12.7c-9.9,0-18.9,0.8-26.7,1.9
			c-0.8,0.1-1.3,0.8-1.3,1.5l0,99c0,0,0,0,0,0c0,0.3,0,0.6,0,1c0,8.9,2.3,15.9,6.6,20.2c4.2,4.3,10.3,6.6,17.7,6.6
			c7.4,0,12.7-2.4,16.4-6.4c3.7-4,5.7-10,5.7-18.5c0-1,0-2-0.1-3c0-0.7,0.4-1.3,1.1-1.5c8.9-2.5,16.2-6.4,21.5-11.7
			C208.2,121.7,213.3,108.1,213.3,91.4z M171.4,147.6c0,12.5-6.8,18.6-17.6,18.5c-12.3,0-19.4-6.8-19.4-19.4l0,0
			c0-0.9,0.8-1.6,1.6-1.5c5.2,0.4,11,0.6,17.5,0.6c5.7,0,11-0.4,16-1.3c0.9-0.2,1.8,0.5,1.8,1.5C171.4,146.5,171.4,147,171.4,147.6z
			 M163,134.8l-16.9,0c-0.1,0-0.1,0-0.2,0c-0.6-0.1-1.2-0.1-1.7-0.2c-0.8-0.1-1.3-0.8-1.3-1.5l0-77.9c0-0.7,0.5-1.4,1.3-1.5
			c3.4-0.6,8.1-1.1,14.2-1.1c27.8,0,41.4,15.3,41.3,39.3c0,25.1-12.8,40.4-36.4,42.9C163.1,134.8,163,134.8,163,134.8z"/>
		<g>
			<path class="st0" d="M188.5,79c-1.3-0.1-2.2-1.6-1.5-2.7c0.2-0.3,0.3-0.7,0.3-1.1c0-1.9-3.1-3.1-7.5-3.1c-4.1,0-6.5,0.8-8.8,2.8
				c-2.5,2.4-6.3,3.9-12.5,3.9c-6.9,0-12-1.9-12-4.7c0-1.2,0.7-2.1,1.5-2.8c0.4-0.3,0.9-0.4,1.4-0.4l0.4,0c1.2,0.1,1.9,1.4,1.5,2.5
				c-0.1,0.2-0.1,0.4-0.1,0.6c0,2,3.6,2.8,6.6,2.8c4.1,0,6.1-0.9,8.5-2.9c2.9-2.5,6.5-3.7,12.9-3.7c6.8,0,12.7,1.7,12.7,5.1
				c0,1.2-0.9,2.5-2.2,3.3C189.5,78.9,189,79.1,188.5,79L188.5,79z"/>
		</g>
		<g>
			<path class="st0" d="M188.5,98c-1.3-0.1-2.2-1.6-1.5-2.7c0.2-0.3,0.3-0.7,0.3-1.1c0-1.9-3.1-3.1-7.5-3.1c-4.1,0-6.5,0.8-8.8,2.8
				c-2.5,2.4-6.3,3.9-12.5,3.9c-6.9,0-12-1.9-12-4.7c0-1.2,0.7-2.1,1.5-2.8c0.4-0.3,0.9-0.4,1.4-0.4l0.4,0c1.2,0.1,1.9,1.4,1.5,2.5
				c-0.1,0.2-0.1,0.4-0.1,0.6c0,2,3.6,2.8,6.6,2.8c4.1,0,6.1-0.9,8.5-2.9c2.9-2.5,6.5-3.7,12.9-3.7c6.8,0,12.7,1.7,12.7,5.1
				c0,1.2-0.9,2.5-2.2,3.3C189.5,97.9,189,98,188.5,98L188.5,98z"/>
		</g>
		<g>
			<path class="st0" d="M188.5,114.8c-1.3-0.1-2.2-1.6-1.5-2.7c0.2-0.3,0.3-0.7,0.3-1.1c0-1.9-3.1-3.1-7.5-3.1
				c-4.1,0-6.5,0.8-8.8,2.8c-2.5,2.4-6.3,3.9-12.5,3.9c-6.9,0-12-1.9-12-4.7c0-1.2,0.7-2.1,1.5-2.8c0.4-0.3,0.9-0.4,1.4-0.4l0.4,0
				c1.2,0.1,1.9,1.4,1.5,2.5c-0.1,0.2-0.1,0.4-0.1,0.6c0,2,3.6,2.8,6.6,2.8c4.1,0,6.1-0.9,8.5-2.9c2.9-2.5,6.5-3.7,12.9-3.7
				c6.8,0,12.7,1.7,12.7,5.1c0,1.2-0.9,2.5-2.2,3.3C189.5,114.7,189,114.8,188.5,114.8L188.5,114.8z"/>
		</g>
	</g>
	<g>
		<path class="st0" d="M0.7,86.6C0.2,86.1,0,85.3,0,84.3V42c0-1,0.2-1.8,0.7-2.4c0.4-0.5,1.1-0.8,2.1-0.8h13
			c7.1,0,12.4,1.9,16.1,5.8c3.7,3.9,5.5,10,5.5,18.4c0,8.3-1.9,14.4-5.6,18.3s-9.1,5.9-16,5.9h-13C1.8,87.4,1.1,87.1,0.7,86.6z
			 M16.3,78.7c3.7,0,6.4-1.2,8.2-3.5c1.8-2.4,2.7-6.4,2.7-12.1c0-5.7-0.9-9.7-2.7-12c-1.8-2.3-4.6-3.5-8.2-3.5h-6.1v31.1H16.3z"/>
	</g>
	<g>
		<path class="st0" d="M39.6,143.2c0-0.3,0.1-0.7,0.2-1.1l16-44c0.3-0.8,0.6-1.4,1-1.7c0.4-0.3,0.9-0.5,1.5-0.5h4.5
			c0.7,0,1.2,0.2,1.5,0.5c0.3,0.3,0.6,0.9,0.9,1.7l16,44c0.1,0.4,0.2,0.8,0.2,1.1c0,0.8-0.4,1.2-1.1,1.2h-7.5c-0.6,0-1-0.1-1.3-0.3
			c-0.3-0.2-0.5-0.6-0.7-1.2l-2.9-8.4H52.9l-2.8,8.4c-0.2,0.6-0.4,1-0.7,1.2c-0.3,0.2-0.7,0.3-1.3,0.3h-7.5
			C39.9,144.5,39.6,144.1,39.6,143.2z M65.6,126.4L60.5,111l-5.2,15.4H65.6z"/>
		<path class="st0" d="M87.2,143.7c-0.4-0.5-0.7-1.3-0.7-2.3V99.1c0-1,0.2-1.8,0.7-2.3c0.4-0.5,1.2-0.7,2.2-0.7h3.8
			c0.7,0,1.2,0.1,1.6,0.3c0.4,0.2,0.7,0.6,1.1,1.2l17.4,28.1V99.1c0-1,0.2-1.8,0.7-2.4c0.4-0.5,1.1-0.8,2.1-0.8h4.6
			c1,0,1.8,0.2,2.2,0.7c0.4,0.5,0.6,1.3,0.6,2.4v42.2c0,1-0.2,1.8-0.6,2.3c-0.4,0.5-1.1,0.7-2.2,0.7h-3.9c-0.7,0-1.2-0.1-1.5-0.3
			c-0.4-0.2-0.7-0.6-1.1-1.2l-17.4-28.1v26.6c0,1-0.2,1.8-0.6,2.3c-0.4,0.5-1.1,0.7-2.2,0.7h-4.6C88.4,144.5,87.7,144.2,87.2,143.7z
			"/>
	</g>
	<g>
		<path class="st0" d="M218.8,88.4c-0.4-0.5-0.7-1.3-0.7-2.3V43.9c0-1,0.2-1.8,0.7-2.4c0.4-0.5,1.1-0.8,2.1-0.8h25.7
			c1,0,1.7,0.2,2,0.7c0.4,0.5,0.6,1.2,0.6,2.3v2.6c0,1.1-0.2,1.9-0.6,2.4c-0.4,0.5-1.1,0.7-2,0.7h-18.3v11.3h12.8c1,0,1.7,0.2,2,0.7
			c0.4,0.5,0.6,1.2,0.6,2.3v2.5c0,1.1-0.2,1.9-0.6,2.4c-0.4,0.5-1.1,0.7-2,0.7h-12.8v11.3h18.2c1,0,1.7,0.2,2,0.7s0.6,1.3,0.6,2.4
			v2.6c0,1.1-0.2,1.9-0.6,2.3c-0.4,0.5-1.1,0.7-2,0.7h-25.7C219.9,89.2,219.2,88.9,218.8,88.4z"/>
	</g>
	<g>
		<path class="st0" d="M219.1,143.7c-0.4-0.5-0.7-1.3-0.7-2.3V99.1c0-1,0.2-1.8,0.7-2.4c0.4-0.5,1.1-0.8,2.1-0.8h15.7
			c10.5,0,15.7,5.3,15.7,15.8c0,3.4-0.6,6.2-1.9,8.6c-1.2,2.4-3.1,4.1-5.5,5.4l6.5,16.4c0.1,0.3,0.2,0.7,0.2,1
			c0,0.9-0.4,1.3-1.3,1.3h-6.9c-0.6,0-1-0.1-1.3-0.2c-0.3-0.2-0.5-0.5-0.7-1.1l-5.7-15.7h-7.4v14c0,1-0.2,1.8-0.6,2.3
			c-0.4,0.5-1.1,0.7-2.2,0.7h-4.6C220.2,144.5,219.5,144.2,219.1,143.7z M235.4,118.9c2.4,0,4.1-0.6,5.3-1.7s1.8-2.9,1.8-5.4
			c0-2.5-0.5-4.3-1.6-5.4c-1.1-1.1-2.7-1.7-4.8-1.7h-7.4v14.2H235.4z"/>
		<path class="st0" d="M258.4,143.7c-0.4-0.5-0.7-1.3-0.7-2.3V99.1c0-1,0.2-1.8,0.7-2.4c0.4-0.5,1.1-0.8,2.1-0.8h25.7
			c1,0,1.7,0.2,2,0.7c0.4,0.5,0.6,1.2,0.6,2.3v2.6c0,1.1-0.2,1.9-0.6,2.4c-0.4,0.5-1.1,0.7-2,0.7H268V116h12.8c1,0,1.7,0.2,2,0.7
			c0.4,0.5,0.6,1.2,0.6,2.3v2.5c0,1.1-0.2,1.9-0.6,2.4c-0.4,0.5-1.1,0.7-2,0.7H268v11.3h18.2c1,0,1.7,0.2,2,0.7s0.6,1.3,0.6,2.4v2.6
			c0,1.1-0.2,1.9-0.6,2.3c-0.4,0.5-1.1,0.7-2,0.7h-25.7C259.5,144.5,258.8,144.2,258.4,143.7z"/>
		<path class="st0" d="M292.1,143.2c0-0.3,0.1-0.7,0.2-1.1l16-44c0.3-0.8,0.6-1.4,1-1.7c0.4-0.3,0.9-0.5,1.5-0.5h4.5
			c0.7,0,1.2,0.2,1.5,0.5c0.3,0.3,0.6,0.9,0.9,1.7l16,44c0.1,0.4,0.2,0.8,0.2,1.1c0,0.8-0.4,1.2-1.1,1.2h-7.5c-0.6,0-1-0.1-1.3-0.3
			c-0.3-0.2-0.5-0.6-0.7-1.2l-2.9-8.4h-15.1l-2.8,8.4c-0.2,0.6-0.4,1-0.7,1.2c-0.3,0.2-0.7,0.3-1.3,0.3h-7.5
			C292.5,144.5,292.1,144.1,292.1,143.2z M318.2,126.4l-5.1-15.4l-5.2,15.4H318.2z"/>
	</g>
	<g>
		<path class="st0" d="M87.8,88c-0.4-0.5-0.7-1.3-0.7-2.3V43.4c0-1,0.2-1.8,0.7-2.3c0.4-0.5,1.2-0.7,2.2-0.7h3.8
			c0.7,0,1.2,0.1,1.6,0.3c0.4,0.2,0.7,0.6,1.1,1.2L113.9,70V43.5c0-1,0.2-1.8,0.7-2.4c0.4-0.5,1.1-0.8,2.1-0.8h4.6
			c1,0,1.8,0.2,2.2,0.7c0.4,0.5,0.6,1.3,0.6,2.4v42.2c0,1-0.2,1.8-0.6,2.3c-0.4,0.5-1.1,0.7-2.2,0.7h-3.9c-0.7,0-1.2-0.1-1.5-0.3
			c-0.4-0.2-0.7-0.6-1.1-1.2L97.4,59.1v26.6c0,1-0.2,1.8-0.6,2.3c-0.4,0.5-1.1,0.7-2.2,0.7h-4.6C88.9,88.8,88.2,88.5,87.8,88z"/>
	</g>
	<g>
		<path class="st0" d="M63.2,40.8c-3.3,0-6.4,0.9-9,2.6c-1.4,0.9-3.2,0-3.2-1.7V13.7v-1.3V3.4L51,0l-1.2,0.3l-1.3,0.3
			c-0.2,0-0.3,0.1-0.5,0.2L23.4,15c-1,0.6-1.3,1.8-0.7,2.8l0.7,1.2c0.6,1,1.8,1.3,2.8,0.7l15.5-8.9c1.3-0.8,3,0.2,3,1.7v0v1.3v47.5
			c0,0.1,0,0.1,0,0.2c-0.1,1.3-0.2,2.6-0.2,4c0,14.6,7.9,23.8,18.2,23.8c9.2,0,18.9-7.5,18.9-24.6C81.5,50.5,74.1,40.8,63.2,40.8z
			 M73.5,68.3c-1.9-2.5-5-4.2-8.4-4.2H59c-3.5,0-6.5,1.7-8.5,4.3c0-0.3,0-0.7,0-1c0-8.8,3.5-18,11.7-18c8.1,0,11.4,9.9,11.4,17.8
			C73.6,67.5,73.5,67.9,73.5,68.3z"/>
	</g>
</g>
</svg>
