
<svg version="1.1" xmlns="http://www.w3.org/2000/svg" xmlns:xlink="http://www.w3.org/1999/xlink" x="0px" y="0px" width="609.5px"
	 height="599.4px" viewBox="0 0 609.5 599.4" style="overflow:visible;enable-background:new 0 0 609.5 599.4;"
	 xml:space="preserve">
<style type="text/css">
	.st0{fill:#009900;stroke:#FFFFFF;stroke-width:20;stroke-miterlimit:10;}
	.st1{fill:#FFFFFF;}
</style>
<defs>
</defs>
<path class="st0" d="M326.8,10C176.2,10,54.1,132.1,54.1,282.7c0,37.1,7.4,72.4,20.9,104.7L14.6,585.8l212.4-49.3
	c30.9,12.2,64.5,18.9,99.7,18.9c150.6,0,272.7-122.1,272.7-272.7C599.5,132.1,477.4,10,326.8,10z"/>
<path class="st1" d="M527.6,367.8c8,5.9-20.9,70.2-63.3,79.9c0,0-49.7,17.7-101.7-21.7c-0.4-0.3,0.5,0.3,0,0
	c-7.5-4.8-79.6-51.1-111.8-84.4c0,0-56.4-47.8-86.4-105.2c-5.8-11.1-19.4-65.9-3-94.1c6.3-10.9,33.9-42.4,41.1-48
	c0,0,9.5-12.8,18.2,0l63.4,92.9c0,0,6.3,11.9,0,19.5c0,0-17.7,21.9-29,31.4c-4.1,3.5-5.6,9.2-3.1,14c6.4,12.5,20.6,35.3,47.8,57.5
	c0,0,70.5,50.9,70.9,51.1c16.2,9.5,27.8,9.3,37.4-2.6l24.2-35.4c0,0,7.3-13.2,15.7-7.5l71.1,46.7"/>
</svg>
