
<svg version="1.1" xmlns="http://www.w3.org/2000/svg" xmlns:xlink="http://www.w3.org/1999/xlink" x="0px" y="0px" width="334px"
	 height="133.3px" viewBox="0 0 334 133.3" style="overflow:visible;enable-background:new 0 0 334 133.3;" xml:space="preserve">
<style type="text/css">
	.st0{fill:#FFFFFF;}
</style>
<defs>
</defs>
<g>
	<g>
		<path class="st0" d="M213.3,52.5c0-16.5-5.3-28.3-14.4-36.6C190,7.6,176.6,3.2,157.7,3.2c-9.9,0-18.9,0.8-26.7,1.9
			c-0.8,0.1-1.3,0.8-1.3,1.5l0,99c0,0,0,0,0,0c0,0.3,0,0.6,0,1c0,8.9,2.3,15.9,6.6,20.2c4.2,4.3,10.3,6.6,17.7,6.6
			c7.4,0,12.7-2.4,16.4-6.4c3.7-4,5.7-10,5.7-18.5c0-1,0-2-0.1-3c0-0.7,0.4-1.3,1.1-1.5c8.9-2.5,16.2-6.4,21.5-11.7
			C208.2,82.8,213.3,69.2,213.3,52.5z M171.4,108.7c0,12.5-6.8,18.6-17.6,18.5c-12.3,0-19.4-6.8-19.4-19.4l0,0
			c0-0.9,0.8-1.6,1.6-1.5c5.2,0.4,11,0.6,17.5,0.6c5.7,0,11-0.4,16-1.3c0.9-0.2,1.8,0.5,1.8,1.5
			C171.4,107.6,171.4,108.1,171.4,108.7z M163,95.9l-16.9,0c-0.1,0-0.1,0-0.2,0c-0.6-0.1-1.2-0.1-1.7-0.2c-0.8-0.1-1.3-0.8-1.3-1.5
			l0-77.9c0-0.7,0.5-1.4,1.3-1.5c3.4-0.6,8.1-1.1,14.2-1.1c27.8,0,41.4,15.3,41.3,39.3c0,25.1-12.8,40.4-36.4,42.9
			C163.1,95.9,163,95.9,163,95.9z"/>
		<g>
			<path class="st0" d="M188.5,40.1c-1.3-0.1-2.2-1.6-1.5-2.7c0.2-0.3,0.3-0.7,0.3-1.1c0-1.9-3.1-3.1-7.5-3.1
				c-4.1,0-6.5,0.8-8.8,2.8c-2.5,2.4-6.3,3.9-12.5,3.9c-6.9,0-12-1.9-12-4.7c0-1.2,0.7-2.1,1.5-2.8c0.4-0.3,0.9-0.4,1.4-0.4l0.4,0
				c1.2,0.1,1.9,1.4,1.5,2.5c-0.1,0.2-0.1,0.4-0.1,0.6c0,2,3.6,2.8,6.6,2.8c4.1,0,6.1-0.9,8.5-2.9c2.9-2.5,6.5-3.7,12.9-3.7
				c6.8,0,12.7,1.7,12.7,5.1c0,1.2-0.9,2.5-2.2,3.3C189.5,40,189,40.2,188.5,40.1L188.5,40.1z"/>
		</g>
		<g>
			<path class="st0" d="M188.5,59.1c-1.3-0.1-2.2-1.6-1.5-2.7c0.2-0.3,0.3-0.7,0.3-1.1c0-1.9-3.1-3.1-7.5-3.1
				c-4.1,0-6.5,0.8-8.8,2.8c-2.5,2.4-6.3,3.9-12.5,3.9c-6.9,0-12-1.9-12-4.7c0-1.2,0.7-2.1,1.5-2.8c0.4-0.3,0.9-0.4,1.4-0.4l0.4,0
				c1.2,0.1,1.9,1.4,1.5,2.5c-0.1,0.2-0.1,0.4-0.1,0.6c0,2,3.6,2.8,6.6,2.8c4.1,0,6.1-0.9,8.5-2.9c2.9-2.5,6.5-3.7,12.9-3.7
				c6.8,0,12.7,1.7,12.7,5.1c0,1.2-0.9,2.5-2.2,3.3C189.5,59,189,59.1,188.5,59.1L188.5,59.1z"/>
		</g>
		<g>
			<path class="st0" d="M188.5,75.9c-1.3-0.1-2.2-1.6-1.5-2.7c0.2-0.3,0.3-0.7,0.3-1.1c0-1.9-3.1-3.1-7.5-3.1
				c-4.1,0-6.5,0.8-8.8,2.8c-2.5,2.4-6.3,3.9-12.5,3.9c-6.9,0-12-1.9-12-4.7c0-1.2,0.7-2.1,1.5-2.8c0.4-0.3,0.9-0.4,1.4-0.4l0.4,0
				c1.2,0.1,1.9,1.4,1.5,2.5c-0.1,0.2-0.1,0.4-0.1,0.6c0,2,3.6,2.8,6.6,2.8c4.1,0,6.1-0.9,8.5-2.9c2.9-2.5,6.5-3.7,12.9-3.7
				c6.8,0,12.7,1.7,12.7,5.1c0,1.2-0.9,2.5-2.2,3.3C189.5,75.8,189,75.9,188.5,75.9L188.5,75.9z"/>
		</g>
		<path class="st0" d="M65.9,2.7c-8.4,0-15,5.5-16.9,14.3c0,0.2-0.1,0.4-0.2,0.6L24.6,76.9c-0.8,1.9-3,2.9-4.9,2.1l-5.1-2
			c-2-0.8-4.2,0.2-5,2.1l-0.3,0.7c-0.8,2,0.2,4.2,2.1,5l12.3,4.9c2,0.8,4.2-0.2,5-2.1l0.3-0.8l19.3-47.5c1-2.4,4.1-3.3,6.1-1.5
			c2.9,2.5,6.6,3.9,10.8,3.9c9.6,0,17.5-6.9,17.5-19.8C82.8,10.6,76.1,2.7,65.9,2.7z M65.6,37.6c-6.1,0-10.1-4.6-11.5-10.6
			c-0.2-0.8-0.1-1.6,0.2-2.3l0.1-0.2c1.8,1.7,4.3,2.8,7,2.8H71c0,0,0,0,0.1,0c3.3,0,5.2,3.7,3.1,6.2C72.1,36,69.2,37.6,65.6,37.6z"
			/>
	</g>
	<g>
		<path class="st0" d="M0.7,47.7C0.2,47.2,0,46.4,0,45.4V3.1c0-1,0.2-1.8,0.7-2.4C1.1,0.3,1.8,0,2.8,0h13c7.1,0,12.4,1.9,16.1,5.8
			c3.7,3.9,5.5,10,5.5,18.4c0,8.3-1.9,14.4-5.6,18.3s-9.1,5.9-16,5.9h-13C1.8,48.4,1.1,48.2,0.7,47.7z M16.3,39.8
			c3.7,0,6.4-1.2,8.2-3.5c1.8-2.4,2.7-6.4,2.7-12.1c0-5.7-0.9-9.7-2.7-12c-1.8-2.3-4.6-3.5-8.2-3.5h-6.1v31.1H16.3z"/>
	</g>
	<g>
		<path class="st0" d="M39.6,104.3c0-0.3,0.1-0.7,0.2-1.1l16-44c0.3-0.8,0.6-1.4,1-1.7c0.4-0.3,0.9-0.5,1.5-0.5h4.5
			c0.7,0,1.2,0.2,1.5,0.5c0.3,0.3,0.6,0.9,0.9,1.7l16,44c0.1,0.4,0.2,0.8,0.2,1.1c0,0.8-0.4,1.2-1.1,1.2h-7.5c-0.6,0-1-0.1-1.3-0.3
			c-0.3-0.2-0.5-0.6-0.7-1.2L68,95.6H52.9l-2.8,8.4c-0.2,0.6-0.4,1-0.7,1.2c-0.3,0.2-0.7,0.3-1.3,0.3h-7.5
			C39.9,105.6,39.6,105.1,39.6,104.3z M65.6,87.5l-5.1-15.4l-5.2,15.4H65.6z"/>
		<path class="st0" d="M87.2,104.8c-0.4-0.5-0.7-1.3-0.7-2.3V60.2c0-1,0.2-1.8,0.7-2.3c0.4-0.5,1.2-0.7,2.2-0.7h3.8
			c0.7,0,1.2,0.1,1.6,0.3c0.4,0.2,0.7,0.6,1.1,1.2l17.4,28.1V60.2c0-1,0.2-1.8,0.7-2.4c0.4-0.5,1.1-0.8,2.1-0.8h4.6
			c1,0,1.8,0.2,2.2,0.7c0.4,0.5,0.6,1.3,0.6,2.4v42.2c0,1-0.2,1.8-0.6,2.3c-0.4,0.5-1.1,0.7-2.2,0.7h-3.9c-0.7,0-1.2-0.1-1.5-0.3
			c-0.4-0.2-0.7-0.6-1.1-1.2L96.8,75.9v26.6c0,1-0.2,1.8-0.6,2.3c-0.4,0.5-1.1,0.7-2.2,0.7h-4.6C88.4,105.6,87.7,105.3,87.2,104.8z"
			/>
	</g>
	<g>
		<path class="st0" d="M218.8,49.5c-0.4-0.5-0.7-1.3-0.7-2.3V5c0-1,0.2-1.8,0.7-2.4c0.4-0.5,1.1-0.8,2.1-0.8h25.7c1,0,1.7,0.2,2,0.7
			c0.4,0.5,0.6,1.2,0.6,2.3v2.6c0,1.1-0.2,1.9-0.6,2.4c-0.4,0.5-1.1,0.7-2,0.7h-18.3v11.3h12.8c1,0,1.7,0.2,2,0.7
			c0.4,0.5,0.6,1.2,0.6,2.3v2.5c0,1.1-0.2,1.9-0.6,2.4c-0.4,0.5-1.1,0.7-2,0.7h-12.8v11.3h18.2c1,0,1.7,0.2,2,0.7s0.6,1.3,0.6,2.4
			v2.6c0,1.1-0.2,1.9-0.6,2.3c-0.4,0.5-1.1,0.7-2,0.7h-25.7C219.9,50.3,219.2,50,218.8,49.5z"/>
	</g>
	<g>
		<path class="st0" d="M219.1,104.8c-0.4-0.5-0.7-1.3-0.7-2.3V60.2c0-1,0.2-1.8,0.7-2.4c0.4-0.5,1.1-0.8,2.1-0.8h15.7
			c10.5,0,15.7,5.3,15.7,15.8c0,3.4-0.6,6.2-1.9,8.6c-1.2,2.4-3.1,4.1-5.5,5.4l6.5,16.4c0.1,0.3,0.2,0.7,0.2,1
			c0,0.9-0.4,1.3-1.3,1.3h-6.9c-0.6,0-1-0.1-1.3-0.2c-0.3-0.2-0.5-0.5-0.7-1.1L236,88.5h-7.4v14c0,1-0.2,1.8-0.6,2.3
			c-0.4,0.5-1.1,0.7-2.2,0.7h-4.6C220.2,105.6,219.5,105.3,219.1,104.8z M235.4,80c2.4,0,4.1-0.6,5.3-1.7s1.8-2.9,1.8-5.4
			c0-2.5-0.5-4.3-1.6-5.4c-1.1-1.1-2.7-1.7-4.8-1.7h-7.4V80H235.4z"/>
		<path class="st0" d="M258.4,104.8c-0.4-0.5-0.7-1.3-0.7-2.3V60.2c0-1,0.2-1.8,0.7-2.4c0.4-0.5,1.1-0.8,2.1-0.8h25.7
			c1,0,1.7,0.2,2,0.7c0.4,0.5,0.6,1.2,0.6,2.3v2.6c0,1.1-0.2,1.9-0.6,2.4c-0.4,0.5-1.1,0.7-2,0.7H268v11.3h12.8c1,0,1.7,0.2,2,0.7
			c0.4,0.5,0.6,1.2,0.6,2.3v2.5c0,1.1-0.2,1.9-0.6,2.4c-0.4,0.5-1.1,0.7-2,0.7H268v11.3h18.2c1,0,1.7,0.2,2,0.7s0.6,1.3,0.6,2.4v2.6
			c0,1.1-0.2,1.9-0.6,2.3c-0.4,0.5-1.1,0.7-2,0.7h-25.7C259.5,105.6,258.8,105.3,258.4,104.8z"/>
		<path class="st0" d="M292.1,104.3c0-0.3,0.1-0.7,0.2-1.1l16-44c0.3-0.8,0.6-1.4,1-1.7c0.4-0.3,0.9-0.5,1.5-0.5h4.5
			c0.7,0,1.2,0.2,1.5,0.5c0.3,0.3,0.6,0.9,0.9,1.7l16,44c0.1,0.4,0.2,0.8,0.2,1.1c0,0.8-0.4,1.2-1.1,1.2h-7.5c-0.6,0-1-0.1-1.3-0.3
			c-0.3-0.2-0.5-0.6-0.7-1.2l-2.9-8.4h-15.1l-2.8,8.4c-0.2,0.6-0.4,1-0.7,1.2c-0.3,0.2-0.7,0.3-1.3,0.3h-7.5
			C292.5,105.6,292.1,105.1,292.1,104.3z M318.2,87.5l-5.1-15.4l-5.2,15.4H318.2z"/>
	</g>
	<g>
		<path class="st0" d="M87.8,49.1c-0.4-0.5-0.7-1.3-0.7-2.3V4.5c0-1,0.2-1.8,0.7-2.3C88.2,1.7,89,1.4,90,1.4h3.8
			c0.7,0,1.2,0.1,1.6,0.3C95.8,2,96.1,2.4,96.6,3l17.4,28.1V4.6c0-1,0.2-1.8,0.7-2.4c0.4-0.5,1.1-0.8,2.1-0.8h4.6
			c1,0,1.8,0.2,2.2,0.7c0.4,0.5,0.6,1.3,0.6,2.4v42.2c0,1-0.2,1.8-0.6,2.3c-0.4,0.5-1.1,0.7-2.2,0.7h-3.9c-0.7,0-1.2-0.1-1.5-0.3
			c-0.4-0.2-0.7-0.6-1.1-1.2L97.4,20.2v26.6c0,1-0.2,1.8-0.6,2.3c-0.4,0.5-1.1,0.7-2.2,0.7h-4.6C88.9,49.9,88.2,49.6,87.8,49.1z"/>
	</g>
</g>
</svg>
